<?xml version="1.0" encoding="UTF-8"?>
<svg id="g-neighborhoods-desktop-council-img" xmlns="http://www.w3.org/2000/svg" baseProfile="tiny" version="1.2" viewBox="0 0 1200 900">
  <!-- Generator: Adobe Illustrator 29.5.1, SVG Export Plug-In . SVG Version: 2.1.0 Build 141)  -->
  <g style="opacity:0.5;">
    <path d="M688.89,335.588l-1.222,3.969-1.118,3.802-1.196,3.883-1.144,3.763-.78,2.904-.338,1.236-.962,3.319-1.066-.584-6.422,5.02-3.12,2.691-2.938,2.53-3.744,6.56-3.666,6.599-3.666,6.592-3.64,6.618-3.952,7.093-3.952,7.101-3.614,6.566-1.768,3.169-1.924,3.415-3.692,6.651-11.128-6.14-3.666,6.527-3.64,6.628-3.64,6.532-7.358,13.277-3.64,6.584,10.608,5.87-7.15,5.142-4.03,7.275-3.952,7.168-.832,7.373-.858,8.197-.806,8.152-.286,8.503-.13,8.495-3.354,6.779-3.744,7.202-2.236,3.992-1.794,3.233-2.574,4.67-.182.322-.702,1.249-.182.338-3.718,6.721-3.666,6.628-3.692,6.651-.208.361-.65,1.166-.234.415-2.6,4.696-3.718,6.659-.156.278-3.302,5.966-.208.369-3.744,7.212-.442,1.143-.26,1.184-.13,1.213.052,1.218.26,4.706.104,2.023.052,1.33.26,5.311-.364,8.329-3.536,6.734-3.692,6.62-4.004,7.269,6.526,3.582,2.86,1.553,2.47.927-1.3,2.301-2.288,4.103-3.666,6.607-3.718,6.703-3.952,7.194-3.952,7.082-1.82,3.306-1.872,3.356-3.692,6.638-3.692,6.68-3.692,6.633-3.718,6.503-1.248,2.337-.832,1.566-1.118,2.002-3.952,7.082-.754,1.364-2.99,5.477-4.082,7.381-17.94-9.893-4.966-2.727-3.9,7.127-3.692,6.597-1.95,3.633-.494.891-1.092,2.08-3.822,6.773-19.967-11.09-.572-.33-2.314-1.286-10.582-5.838-.832-.46,3.718-6.628-.858-.475-10.634-5.906,3.64-6.638,3.718-6.628,3.926-7.114-14.508-8.09,1.794-1.582,2.782-2.428,2.028-1.758-.26-1.114.598-1.717.338-1.795.052-1.821-.234-1.81-7.54-3.904-1.3-.701-1.352-.719-.754-.431-.806-.439-1.976-1.044-4.16-2.379-.338-.203.91-1.714,3.64-6.947.416-.678-.078-.564.234-.535,1.742-2.834,2.21-4.28,1.456-2.714.988-1.904,1.014-1.995,1.404-2.698,1.43-2.582,2.756-4.857,1.638-3.091.312-.854,1.014-1.649.442-1.291.858-1.363.572-.631,1.404-2.893,1.3-2.114.624-1.53.468-.854.286-.195.884-1.86.442-.751-.026-.374,2.548-4.68,3.094-5.503.962-2.234.78-.945,1.092-1.034.156-.722.702-1.543.728-1.171.078-.569,1.352-2.519,1.222-2.054,1.482-2.766,5.148-8.82,2.028-3.293,2.652-4.537.884-1.699,1.716-2.857,3.614-6.459.156-.252,1.404-2.122.52-1.283,1.534-2.234.832-1.158.104-.764.65-1.836.312-.797,1.482-2.841.702-1.091.286-.434-.104-.397,1.378-2.704.598-1.073.026-.449.702-1.301.572-.709.156-.571.286-.66.39-.364v-.483l.598-1.509,1.144-2.631,2.184-3.865.728-1.402.312-.294.624-1.506.338-.883,1.066-2.2.936-1.821.832-1.384,1.092-1.992.936-1.75.962-1.87.416-.504,1.794-3.569.728-1.351,1.066-1.8,1.352-2.628v-.005l1.144-2.031,1.924-3.55.104-.468,6.188-12.617,1.482-2.737,5.928-9.651,2.21-2.865.338-.54,2.964-3.833,5.512-7.591,1.222-1.823,4.524-6.724,2.964-4.407,4.03-5.986,3.588-5.35,1.482.901,3.406-5.895.52-.964.364-.514,1.222-1.841-.624-.41-.442-.293-.338.483-.988-.66,2.262-3.374.91.61-1.638,2.493.468.301.702.455,2.184-3.301-.988-.538.702-1.114.884-1.384-1.768-6.007-.286-.379-.91-.478-.936,1.776-5.486-3.002,2.47-4.48,5.46,2.989-.988,1.802,1.04.584.416.379.234.478,1.508,5.145.026.148.962.639,2.626-4.646.26-1.849.312-.771.442-.849,1.092-1.725-2.34-1.2.182-.361.52-1.044-8.216-4.553-.156-.078-2.054-1.091-.208-.091-.156-.081-.104-.086-.052-.047-.052-.049-.182-.247-.052-.107-.026-.104-.026-.062v-.026l.104-.397-.182-.094,3.328-6.597.988-1.974.182.083,12.506-24.876,1.43-2.841,2.496,1.234,5.07-9.981.936.454v.044l-.182.286,9.542,4.823,2.73-5.34,1.248.6.624-1.192v-.003l.208-.34.624-1.177.728-1.254.442-.751.364-.566.286-.343.598-.727.234-.299.078-.133.286-.428.26-.444,2.912-5.418,4.94-10.498,6.344-12.552,2.184-3.623.858-2.163,1.222-1.615.832-1.662,1.872-3.654,1.014-1.688.364-1.527.754-1.467.104-1.057.26-1.249.442-1.511.702-1.592.468-.847.65-.826.364-.626.91-1.452.442-1.026.234-.626.286-1.028.234-.462.624-.867.442-.948.598-.483,2.574-10.381.754-2.169.104-.325.338-1.138.026-.821.208-.732.156-.927.078-.626-.052-1.262-.026-.351.052-.374.234-.86.104-.309.182-.125.156-.771.156-1.893.286-1.273.286-.647.442-.423.546-.107.468-.039.312-.107.078-.234-.182-.184-.598-.122-.494-.12-.026-.005-.442-.239-.364-.683,2.912-10.412.234-.735,1.17-5.202.624-2.304.702-2.457.65-1.527.806-2.974.78-2.787.52-1.086.546-2.044.754-1.444.494-.701.312-.571,1.274-3.685.858-1.987.858-2.558.806-2.431.416-1.457.832-1.543.39-1.26,7.254,2.447,1.638.558,5.174,1.332.572.143.494.075,8.008.48-.26,3.135-7.02,9.285-.234,1.356-.078,1.379.078,1.387.234,1.366.338,1.325,14.534,8.054.182-.828,2.002-6.62,3.198-10.778,14.742,10.191.78.525-4.446,7.965-3.64,6.589-3.64,6.618-3.666,6.56-3.692,6.597-3.666,6.602-3.666,6.646-3.64,6.566-3.276,5.911-.39.675-3.926,7.106.832.465,22.048,12.181,12.948,7.15" vector-effect="none" fill="red" fill-rule="evenodd" stroke="#232323" stroke-linecap="square" stroke-linejoin="bevel" stroke-width=".737"/>
  </g>
<style>
#g-neighborhoods-desktop-council-img rect, #g-neighborhoods-desktop-council-img circle, #g-neighborhoods-desktop-council-img path, #g-neighborhoods-desktop-council-img line, #g-neighborhoods-desktop-council-img polyline, #g-neighborhoods-desktop-council-img polygon { vector-effect: non-scaling-stroke; }
</style>
</svg>
